<svg xmlns="http://www.w3.org/2000/svg" viewBox="-12.0 0.0 1303.5 378.8" role="img" aria-label="iStock"><g id="mark" transform="translate(0,12.0) scale(1.0116) translate(-196,-112)"><rect x="196" y="112" width="120" height="104" rx="30" fill="#f59e0b"/><g fill="#4f46e5"><rect x="196" y="248" width="120" height="60" rx="28"/><rect x="196" y="322" width="120" height="60" rx="28"/><rect x="196" y="396" width="120" height="60" rx="28"/></g></g><g id="wordmark" transform="translate(145.7,360) scale(0.42254) scale(1,-1)"><path transform="translate(0.0,0)" d="M348 -16Q260 -16 196 15Q132 46 95.5 101.5Q59 157 53 231L185 239Q191 193 211.5 161Q232 129 266.5 112.5Q301 96 350 96Q392 96 421.5 106.5Q451 117 466.5 137.5Q482 158 482 188Q482 215 469 236.5Q456 258 419 275.5Q382 293 309 310Q221 330 168 355.5Q115 381 91 419.5Q67 458 67 516Q67 578 98 625.5Q129 673 186 699.5Q243 726 323 726Q408 726 467 695.5Q526 665 560 612Q594 559 602 490L471 484Q466 523 447.5 552Q429 581 397.5 597.5Q366 614 321 614Q265 614 232.5 588.5Q200 563 200 521Q200 492 213.5 473Q227 454 262 440.5Q297 427 360 412Q455 392 511 361Q567 330 591 289Q615 248 615 195Q615 130 582 82.5Q549 35 489 9.5Q429 -16 348 -16Z" fill="#0f172a"/><path transform="translate(615.2,0)" d="M284 0Q204 0 166.5 37Q129 74 129 153L129 659L257 659L257 165Q257 128 273 113.5Q289 99 323 99L398 99L398 0ZM45 435L45 534L398 534L398 435Z" fill="#0f172a"/><path transform="translate(998.0,0)" d="M302 -12Q223 -12 163.5 22.5Q104 57 71.5 120Q39 183 39 267Q39 352 71.5 414.5Q104 477 163.5 511.5Q223 546 302 546Q381 546 440 511.5Q499 477 531.5 414.5Q564 352 564 267Q564 183 531.5 120Q499 57 440 22.5Q381 -12 302 -12ZM302 92Q364 92 397.5 138Q431 184 431 267Q431 349 397.5 395.5Q364 442 302 442Q240 442 206 395.5Q172 349 172 267Q172 184 206 138Q240 92 302 92Z" fill="#0f172a"/><path transform="translate(1561.0,0)" d="M302 -12Q222 -12 163 22.5Q104 57 71.5 120Q39 183 39 267Q39 351 71.5 413.5Q104 476 163 511Q222 546 302 546Q370 546 423 522Q476 498 509.5 453.5Q543 409 551 345L419 338Q411 389 379.5 415.5Q348 442 302 442Q240 442 206 395.5Q172 349 172 267Q172 184 206 138Q240 92 302 92Q349 92 380.5 119Q412 146 419 203L551 197Q543 133 510 86Q477 39 424 13.5Q371 -12 302 -12Z" fill="#0f172a"/><path transform="translate(2101.4,0)" d="M70 0L70 710L198 710L198 293L417 534L575 534L366 312L582 0L438 0L282 236L198 147L198 0Z" fill="#0f172a"/></g></svg>