<svg xmlns="http://www.w3.org/2000/svg" viewBox="-10.0 -10.0 906.6 320.0" role="img" aria-label="istock">
  <g id="mark" transform="translate(0,0) scale(0.8721) translate(-196,-112)">
    <rect x="196" y="112" width="120" height="104" rx="30" fill="#f59e0b"/>
    <g fill="#4f46e5"><rect x="196" y="248" width="120" height="60" rx="28"/><rect x="196" y="322" width="120" height="60" rx="28"/><rect x="196" y="396" width="120" height="60" rx="28"/></g>
  </g>
  <g id="wordmark" transform="translate(178.7,240.0) scale(0.25352) scale(1,-1)">
    <path transform="translate(0.0,0)" d="M70 0L70 534L198 534L198 0Z" fill="#4f46e5"/>
    <path transform="translate(0.0,0)" d="M68 605L68 719L201 719L201 605Z" fill="#f59e0b"/>
    <path transform="translate(228.8,0)" d="M287 -12Q206 -12 152.5 11Q99 34 71 75Q43 116 39 168L170 174Q177 132 204 109Q231 86 288 86Q333 86 356.5 100.5Q380 115 380 146Q380 164 371.5 176Q363 188 338.5 197Q314 206 267 215Q186 229 140 249.5Q94 270 75.5 301Q57 332 57 378Q57 453 114.5 499.5Q172 546 283 546Q360 546 409.5 521.5Q459 497 484.5 456.5Q510 416 514 366L384 360Q383 385 372 405Q361 425 339 436.5Q317 448 281 448Q236 448 212.5 430Q189 412 189 382Q189 361 198.5 347Q208 333 231 324.5Q254 316 294 309Q376 297 424 276Q472 255 492.5 223.5Q513 192 513 148Q513 71 451.5 29.5Q390 -12 287 -12Z" fill="#0f172a"/>
    <path transform="translate(724.4,0)" d="M284 0Q204 0 166.5 37Q129 74 129 153L129 659L257 659L257 165Q257 128 273 113.5Q289 99 323 99L398 99L398 0ZM45 435L45 534L398 534L398 435Z" fill="#0f172a"/>
    <path transform="translate(1107.2,0)" d="M302 -12Q223 -12 163.5 22.5Q104 57 71.5 120Q39 183 39 267Q39 352 71.5 414.5Q104 477 163.5 511.5Q223 546 302 546Q381 546 440 511.5Q499 477 531.5 414.5Q564 352 564 267Q564 183 531.5 120Q499 57 440 22.5Q381 -12 302 -12ZM302 92Q364 92 397.5 138Q431 184 431 267Q431 349 397.5 395.5Q364 442 302 442Q240 442 206 395.5Q172 349 172 267Q172 184 206 138Q240 92 302 92Z" fill="#0f172a"/>
    <path transform="translate(1670.2,0)" d="M302 -12Q222 -12 163 22.5Q104 57 71.5 120Q39 183 39 267Q39 351 71.5 413.5Q104 476 163 511Q222 546 302 546Q370 546 423 522Q476 498 509.5 453.5Q543 409 551 345L419 338Q411 389 379.5 415.5Q348 442 302 442Q240 442 206 395.5Q172 349 172 267Q172 184 206 138Q240 92 302 92Q349 92 380.5 119Q412 146 419 203L551 197Q543 133 510 86Q477 39 424 13.5Q371 -12 302 -12Z" fill="#0f172a"/>
    <path transform="translate(2210.6,0)" d="M70 0L70 710L198 710L198 293L417 534L575 534L366 312L582 0L438 0L282 236L198 147L198 0Z" fill="#0f172a"/>
  </g>
</svg>
